<svg class="map-base" viewBox="0 0 1200 740" preserveAspectRatio="none" xmlns="http://www.w3.org/2000/svg" aria-hidden="true"><rect width="1200" height="740" class="map-water"/><path class="land" data-country="France" d="M-3748.0,3618.5 L-3788.5,3683.0 L-3809.6,3734.9 L-3835.9,3761.7 L-3868.7,3766.7 L-3878.0,3746.9 L-3893.4,3743.9 L-3914.6,3763.0 L-3944.6,3748.5 L-3927.1,3718.9 L-3921.0,3686.6 L-3909.0,3656.3 L-3936.0,3614.5 L-3941.4,3566.3 L-3905.7,3505.7 L-3882.4,3513.5 L-3831.9,3530.2 L-3759.3,3589.7 L-3748.0,3618.5 Z M218.5,425.4 L250.9,443.9 L349.7,456.8 L315.0,505.1 L306.3,555.3 L287.5,567.3 L256.2,560.9 L258.4,578.8 L208.3,618.4 L207.3,650.3 L240.0,639.2 L263.6,670.1 L260.7,690.1 L280.9,716.5 L257.1,738.0 L274.8,792.5 L312.0,801.5 L304.1,832.1 L242.0,871.9 L106.8,852.8 L6.9,875.7 L-1.0,918.1 L-80.4,927.2 L-157.6,895.3 L-182.5,910.6 L-308.8,878.6 L-336.1,851.2 L-300.6,808.9 L-287.6,668.5 L-358.3,594.5 L-408.9,558.9 L-513.7,531.7 L-520.6,480.4 L-431.7,465.0 L-316.6,483.2 L-338.3,403.4 L-273.6,433.6 L-113.9,378.7 L-93.3,320.9 L-33.4,306.7 L-23.4,331.5 L8.5,332.6 L40.3,360.9 L88.2,394.1 L123.4,388.6 L183.4,420.8 L198.7,426.9 L218.5,425.4 Z M394.0,907.2 L438.2,880.2 L449.8,940.7 L427.2,995.1 L396.0,980.8 L380.2,933.4 L394.0,907.2 Z"/><path class="land" data-country="Poland" d="M1404.6,111.9 L1407.6,143.1 L1426.6,169.9 L1426.2,198.0 L1385.1,212.3 L1406.3,245.0 L1407.6,276.4 L1442.1,337.9 L1434.7,357.7 L1400.7,365.9 L1338.4,424.5 L1356.1,456.2 L1341.1,452.1 L1276.0,425.0 L1226.6,434.9 L1194.2,427.7 L1153.7,442.8 L1119.1,417.8 L1090.9,427.4 L1087.1,423.1 L1055.5,388.4 L1004.5,384.2 L998.0,362.1 L951.0,354.2 L940.8,372.4 L903.5,357.8 L907.8,338.4 L856.5,332.3 L824.0,309.6 L795.9,264.6 L801.3,240.3 L784.3,202.6 L759.4,177.5 L778.5,158.7 L762.5,122.8 L809.3,102.1 L916.4,69.5 L1002.7,45.7 L1071.1,57.6 L1076.3,74.8 L1142.4,75.7 L1226.9,83.7 L1353.0,82.6 L1388.2,90.2 L1404.6,111.9 Z"/><path class="land" data-country="Austria" d="M958.6,519.9 L953.4,548.7 L914.8,548.8 L928.1,564.1 L905.3,609.5 L892.2,621.3 L832.3,623.1 L797.7,639.1 L741.0,633.6 L643.0,615.4 L627.6,590.9 L559.9,603.2 L551.9,616.6 L510.4,606.6 L475.4,604.6 L444.3,591.8 L454.8,574.6 L452.2,562.0 L472.9,558.2 L507.6,577.7 L517.3,559.1 L577.8,562.1 L626.8,549.5 L659.7,551.7 L681.1,566.1 L687.5,554.1 L677.8,508.2 L702.4,499.2 L726.6,466.8 L777.5,489.4 L816.1,460.6 L840.2,455.3 L893.5,476.8 L925.7,473.2 L957.3,486.5 L951.8,495.4 L958.6,519.9 Z"/><path class="land" data-country="Hungary" d="M1308.7,498.8 L1346.8,518.0 L1351.6,536.9 L1309.7,551.7 L1277.2,599.5 L1235.8,647.2 L1180.8,660.5 L1138.0,657.4 L1085.5,675.9 L1085.5,675.9 L1059.8,686.5 L1003.2,672.9 L951.9,642.7 L930.2,634.0 L916.8,610.2 L905.3,609.5 L928.1,564.1 L914.8,548.8 L953.4,548.7 L958.6,519.9 L993.5,537.9 L1018.8,545.6 L1076.3,537.0 L1081.9,522.8 L1109.1,520.7 L1142.5,509.8 L1149.9,514.3 L1182.1,505.5 L1198.2,488.9 L1220.7,484.6 L1294.1,506.0 L1308.7,498.8 Z"/><path class="land" data-country="Germany" d="M762.5,122.8 L778.5,158.7 L759.4,177.5 L784.3,202.6 L801.3,240.3 L795.9,264.6 L824.0,309.6 L793.4,317.0 L775.3,308.9 L758.1,322.3 L708.9,335.9 L683.4,353.5 L633.6,368.8 L645.6,389.8 L652.9,419.5 L687.9,436.5 L726.6,466.8 L702.4,499.2 L677.8,508.2 L687.5,554.1 L681.1,566.1 L659.7,551.7 L626.8,549.5 L577.8,562.1 L517.3,559.1 L507.6,577.7 L472.9,558.2 L452.2,562.0 L378.7,540.5 L364.6,555.8 L306.3,555.3 L315.0,505.1 L349.7,456.8 L250.9,443.9 L218.5,425.4 L222.4,394.5 L208.7,378.6 L216.5,331.0 L204.9,257.1 L246.1,257.1 L263.5,230.6 L280.6,166.0 L267.8,142.2 L281.2,127.3 L338.5,123.5 L351.2,139.0 L397.8,104.2 L382.1,77.8 L378.9,37.9 L430.8,47.2 L474.6,36.4 L475.9,63.7 L545.2,80.1 L544.4,105.1 L614.1,91.9 L652.7,72.6 L730.1,100.4 L762.5,122.8 Z"/><path class="land" data-country="Switzerland" d="M452.2,562.0 L454.8,574.6 L444.3,591.8 L475.4,604.6 L510.4,606.6 L504.9,635.4 L474.7,647.3 L424.0,638.5 L409.1,666.9 L376.5,669.2 L364.6,658.0 L326.1,681.9 L293.1,685.2 L263.6,670.1 L240.0,639.2 L207.3,650.3 L208.3,618.4 L258.4,578.8 L256.2,560.9 L287.5,567.3 L306.3,555.3 L364.6,555.8 L378.7,540.5 L452.2,562.0 Z"/><path class="land" data-country="Luxembourg" d="M208.7,378.6 L222.4,394.5 L218.5,425.4 L198.7,426.9 L183.4,420.8 L190.8,381.3 L208.7,378.6 Z"/><path class="land" data-country="Belgium" d="M216.5,331.0 L208.7,378.6 L190.8,381.3 L183.4,420.8 L123.4,388.6 L88.2,394.1 L40.3,360.9 L8.5,332.6 L-23.4,331.5 L-33.4,306.7 L21.6,292.8 L21.6,292.8 L21.6,292.8 L71.8,298.3 L135.4,283.7 L178.8,314.5 L216.5,331.0 Z"/><path class="land" data-country="Netherlands" d="M267.8,142.2 L280.6,166.0 L263.5,230.6 L246.1,257.1 L204.9,257.1 L216.5,331.0 L178.8,314.5 L135.4,283.7 L71.8,298.3 L21.6,292.8 L21.6,292.8 L56.9,273.4 L117.0,169.7 L210.8,140.2 L267.8,142.2 Z"/><path class="land" data-country="Italy" d="M510.4,606.6 L551.9,616.6 L559.9,603.2 L627.6,590.9 L643.0,615.4 L741.0,633.6 L733.6,668.3 L750.0,698.3 L695.4,688.1 L639.7,713.1 L643.5,748.1 L635.1,768.2 L657.5,804.0 L721.8,839.5 L756.3,897.8 L832.6,954.6 L886.4,954.2 L903.1,969.7 L883.8,983.8 L945.3,1009.2 L995.6,1030.6 L1054.4,1067.3 L1061.5,1080.5 L1048.7,1105.7 L1010.6,1072.8 L951.1,1061.2 L922.2,1106.8 L971.8,1132.9 L963.6,1169.7 L935.0,1173.9 L898.4,1234.3 L869.8,1239.8 L870.0,1218.2 L884.0,1180.4 L898.9,1165.4 L872.1,1124.5 L851.2,1089.0 L822.8,1080.2 L802.5,1049.8 L758.4,1037.0 L728.8,1008.6 L678.0,1004.1 L624.5,972.3 L561.7,926.4 L515.1,885.8 L493.7,816.1 L459.6,807.9 L403.8,784.7 L372.2,794.2 L332.6,826.9 L304.1,832.1 L312.0,801.5 L274.8,792.5 L257.1,738.0 L280.9,716.5 L260.7,690.1 L263.6,670.1 L293.1,685.2 L326.1,681.9 L364.6,658.0 L376.5,669.2 L409.1,666.9 L424.0,638.5 L474.7,647.3 L504.9,635.4 L510.4,606.6 Z M806.5,1223.2 L858.5,1217.0 L833.8,1272.5 L844.1,1294.4 L829.7,1330.6 L777.3,1304.0 L742.4,1296.4 L646.7,1260.6 L656.3,1224.4 L736.5,1230.9 L806.5,1223.2 Z M391.5,1029.0 L425.8,1007.1 L467.0,1057.1 L457.3,1150.4 L426.2,1145.9 L398.2,1169.4 L372.2,1150.7 L369.5,1065.7 L353.8,1025.4 L391.5,1029.0 Z"/><path class="land" data-country="Denmark" d="M474.6,36.4 L430.8,47.2 L378.9,37.9 L351.1,-1.2 L349.0,-73.3 L360.5,-92.3 L380.1,-113.5 L440.5,-117.8 L464.6,-137.3 L519.8,-157.2 L517.4,-120.9 L497.1,-98.0 L505.4,-78.2 L542.5,-67.6 L525.8,-41.0 L505.4,-48.6 L456.0,2.1 L474.6,36.4 Z M642.6,-43.1 L664.5,-7.8 L623.3,49.3 L551.6,9.5 L542.0,-19.7 L642.6,-43.1 Z"/><path class="land" data-country="Slovenia" d="M741.0,633.6 L797.7,639.1 L832.3,623.1 L892.2,621.3 L905.3,609.5 L916.8,610.2 L930.2,634.0 L875.6,652.7 L868.9,681.2 L845.1,688.4 L845.3,708.1 L818.4,706.8 L795.1,695.3 L782.5,707.1 L734.7,704.7 L750.0,698.3 L733.6,668.3 L741.0,633.6 Z"/><path class="land" data-country="Slovakia" d="M1341.1,452.1 L1322.1,470.4 L1308.7,498.8 L1294.1,506.0 L1220.7,484.6 L1198.2,488.9 L1182.1,505.5 L1149.9,514.3 L1142.5,509.8 L1109.1,520.7 L1081.9,522.8 L1076.3,537.0 L1018.8,545.6 L993.5,537.9 L958.6,519.9 L951.8,495.4 L957.3,486.5 L967.0,471.0 L997.4,472.2 L1020.8,464.9 L1022.6,458.3 L1035.8,455.0 L1040.3,439.0 L1056.0,435.9 L1066.6,423.2 L1087.1,423.1 L1090.9,427.4 L1119.1,417.8 L1153.7,442.8 L1194.2,427.7 L1226.6,434.9 L1276.0,425.0 L1341.1,452.1 Z"/><path class="land" data-country="Czechia" d="M824.0,309.6 L856.5,332.3 L907.8,338.4 L903.5,357.8 L940.8,372.4 L951.0,354.2 L998.0,362.1 L1004.5,384.2 L1055.5,388.4 L1087.1,423.1 L1066.6,423.2 L1056.0,435.9 L1040.3,439.0 L1035.8,455.0 L1022.6,458.3 L1020.8,464.9 L997.4,472.2 L967.0,471.0 L957.3,486.5 L925.7,473.2 L893.5,476.8 L840.2,455.3 L816.1,460.6 L777.5,489.4 L726.6,466.8 L687.9,436.5 L652.9,419.5 L645.6,389.8 L633.6,368.8 L683.4,353.5 L708.9,335.9 L758.1,322.3 L775.3,308.9 L793.4,317.0 L824.0,309.6 Z"/></svg>
